# xmcd CD database file
# Copyright (C) 1993-1998 Ti Kan
# 
# Track frame offsets:
#	183
#	21008
#	40480
#	59158
#	75553
#	88458
#	101433
#	114218
#	129990
#	148255
#	167045
#	187645
#	204595
#	221630
#	238975
#	251070
#
# Disc length: 3558 seconds
# 
# Revision: 1
# Processed by: cddbd v1.4b41PL1 Copyright (c) Steve Scherf et al.
# Submitted via: DiscPlay 4.0.3
# 
DISCID=e70de410
DTITLE=Various Artist - Love at the movies
DYEAR=1900
DGENRE=
TTITLE0=Time of my life- Bill Medley and Jennifer Warnes
TTITLE1=It must have been love- Roxette
TTITLE2=Wicked games- Chris Isaak
TTITLE3=Unchained Melody- The righteous brothers
TTITLE4=It had to be you- Harry Connick Jnr
TTITLE5=Tell it like it is- Aaron Neville
TTITLE6=Blue velvet- Bobby Vinton
TTITLE7=Mona Lisa- Nat King Cole
TTITLE8=Arthur's theme- Christopher Cross
TTITLE9=The glory of love- Peter Cetera
TTITLE10=Lily was here- David Stewart and Candy Dulfer
TTITLE11=Up where we belong- Joe Cocker and Jennifer Warnes
TTITLE12=Coming around again- Carly Simon
TTITLE13=How deep is your love- Bee Gees
TTITLE14=Sea of Love- Marty Wilde
TTITLE15=Kokomo- Beach boys
EXTD=
EXTT0=
EXTT1=
EXTT2=
EXTT3=
EXTT4=
EXTT5=
EXTT6=
EXTT7=
EXTT8=
EXTT9=
EXTT10=
EXTT11=
EXTT12=
EXTT13=
EXTT14=
EXTT15=
PLAYORDER=
